<svg xmlns="http://www.w3.org/2000/svg" viewBox="0 0 64 64" id="CellPhone"><path fill="#e53939" d="M49.98 0H14.02c-1.61 0-2.91 1.31-2.91 2.91v58.18c0 1.61 1.3 2.91 2.91 2.91h35.96c1.61 0 2.91-1.3 2.91-2.91V2.91c0-1.6-1.3-2.91-2.91-2.91zM27.36 6.27h8.43c.53 0 .97.44.97.97 0 .54-.44.97-.97.97h-8.43a.97.97 0 0 1 0-1.94zm5.22 53.97c-1.93 0-3.5-1.57-3.5-3.5s1.57-3.5 3.5-3.5 3.5 1.57 3.5 3.5-1.57 3.5-3.5 3.5zm14.28-9.66c0 .54-.44.97-.97.97H18.11a.97.97 0 0 1-.97-.97V13.42c0-.53.44-.97.97-.97h27.77c.53 0 .97.44.97.97v37.16z" class="color2b4a54 svgShape"></path><path fill="#e53939" d="M32.58 55.18c-.86 0-1.56.7-1.56 1.56 0 .85.7 1.56 1.56 1.56.86 0 1.56-.71 1.56-1.56 0-.87-.7-1.56-1.56-1.56z" class="color2b4a54 svgShape"></path></svg>